<mxfile host="app.diagrams.net" modified="2023-02-22T06:38:31.700Z" agent="5.0 (Macintosh; Intel Mac OS X 10_15_7) AppleWebKit/537.36 (KHTML, like Gecko) Chrome/110.0.0.0 Safari/537.36" etag="CFdep5snOstxvqCkxJtl" version="20.8.22" type="github">
  <diagram name="第 1 页" id="Q9Qhz2RqKxdd3Bqk_GgG">
    <mxGraphModel dx="1592" dy="1021" grid="1" gridSize="10" guides="1" tooltips="1" connect="1" arrows="1" fold="1" page="1" pageScale="1" pageWidth="827" pageHeight="1169" math="0" shadow="0">
      <root>
        <mxCell id="0" />
        <mxCell id="1" parent="0" />
        <mxCell id="_6r8pyDg1fTzUx4y1s2i-39" value="项目管理" style="shape=table;html=1;whiteSpace=wrap;startSize=20;container=1;collapsible=0;childLayout=tableLayout;fillColor=none;swimlaneFillColor=#ffffff;strokeColor=none;movable=1;resizable=1;rotatable=1;deletable=1;editable=1;locked=0;connectable=1;" vertex="1" parent="1">
          <mxGeometry x="140" y="40" width="1282" height="818" as="geometry" />
        </mxCell>
        <mxCell id="_6r8pyDg1fTzUx4y1s2i-40" value="" style="shape=partialRectangle;html=1;whiteSpace=wrap;collapsible=0;dropTarget=0;pointerEvents=0;fillColor=none;top=0;left=0;bottom=0;right=0;points=[[0,0.5],[1,0.5]];portConstraint=eastwest;strokeColor=none;" vertex="1" parent="_6r8pyDg1fTzUx4y1s2i-39">
          <mxGeometry y="20" width="1282" height="39" as="geometry" />
        </mxCell>
        <mxCell id="_6r8pyDg1fTzUx4y1s2i-41" value="" style="shape=partialRectangle;html=1;whiteSpace=wrap;connectable=0;fillColor=none;top=1;left=1;bottom=1;right=1;overflow=hidden;strokeColor=none;" vertex="1" parent="_6r8pyDg1fTzUx4y1s2i-40">
          <mxGeometry width="62" height="39" as="geometry">
            <mxRectangle width="62" height="39" as="alternateBounds" />
          </mxGeometry>
        </mxCell>
        <mxCell id="_6r8pyDg1fTzUx4y1s2i-42" value="前置" style="shape=partialRectangle;html=1;whiteSpace=wrap;connectable=0;fillColor=none;top=1;left=1;bottom=1;right=1;overflow=hidden;" vertex="1" parent="_6r8pyDg1fTzUx4y1s2i-40">
          <mxGeometry x="62" width="244" height="39" as="geometry">
            <mxRectangle width="244" height="39" as="alternateBounds" />
          </mxGeometry>
        </mxCell>
        <mxCell id="_6r8pyDg1fTzUx4y1s2i-43" value="流程" style="shape=partialRectangle;html=1;whiteSpace=wrap;connectable=0;fillColor=none;top=1;left=1;bottom=1;right=1;overflow=hidden;" vertex="1" parent="_6r8pyDg1fTzUx4y1s2i-40">
          <mxGeometry x="306" width="244" height="39" as="geometry">
            <mxRectangle width="244" height="39" as="alternateBounds" />
          </mxGeometry>
        </mxCell>
        <mxCell id="_6r8pyDg1fTzUx4y1s2i-121" value="输出" style="shape=partialRectangle;html=1;whiteSpace=wrap;connectable=0;fillColor=none;top=1;left=1;bottom=1;right=1;overflow=hidden;" vertex="1" parent="_6r8pyDg1fTzUx4y1s2i-40">
          <mxGeometry x="550" width="244" height="39" as="geometry">
            <mxRectangle width="244" height="39" as="alternateBounds" />
          </mxGeometry>
        </mxCell>
        <mxCell id="_6r8pyDg1fTzUx4y1s2i-139" value="阶段说明" style="shape=partialRectangle;html=1;whiteSpace=wrap;connectable=0;fillColor=none;top=1;left=1;bottom=1;right=1;overflow=hidden;" vertex="1" parent="_6r8pyDg1fTzUx4y1s2i-40">
          <mxGeometry x="794" width="244" height="39" as="geometry">
            <mxRectangle width="244" height="39" as="alternateBounds" />
          </mxGeometry>
        </mxCell>
        <mxCell id="_6r8pyDg1fTzUx4y1s2i-145" value="备注" style="shape=partialRectangle;html=1;whiteSpace=wrap;connectable=0;fillColor=none;top=1;left=1;bottom=1;right=1;overflow=hidden;" vertex="1" parent="_6r8pyDg1fTzUx4y1s2i-40">
          <mxGeometry x="1038" width="244" height="39" as="geometry">
            <mxRectangle width="244" height="39" as="alternateBounds" />
          </mxGeometry>
        </mxCell>
        <mxCell id="_6r8pyDg1fTzUx4y1s2i-44" value="" style="shape=partialRectangle;html=1;whiteSpace=wrap;collapsible=0;dropTarget=0;pointerEvents=0;fillColor=none;top=1;left=1;bottom=1;right=1;points=[[0,0.5],[1,0.5]];portConstraint=eastwest;" vertex="1" parent="_6r8pyDg1fTzUx4y1s2i-39">
          <mxGeometry y="59" width="1282" height="149" as="geometry" />
        </mxCell>
        <mxCell id="_6r8pyDg1fTzUx4y1s2i-45" value="项目立项" style="shape=partialRectangle;html=1;whiteSpace=wrap;connectable=0;fillColor=none;top=1;left=1;bottom=1;right=1;overflow=hidden;horizontal=0;" vertex="1" parent="_6r8pyDg1fTzUx4y1s2i-44">
          <mxGeometry width="62" height="149" as="geometry">
            <mxRectangle width="62" height="149" as="alternateBounds" />
          </mxGeometry>
        </mxCell>
        <mxCell id="_6r8pyDg1fTzUx4y1s2i-46" value="" style="shape=partialRectangle;html=1;whiteSpace=wrap;connectable=0;fillColor=none;top=1;left=1;bottom=1;right=1;overflow=hidden;" vertex="1" parent="_6r8pyDg1fTzUx4y1s2i-44">
          <mxGeometry x="62" width="244" height="149" as="geometry">
            <mxRectangle width="244" height="149" as="alternateBounds" />
          </mxGeometry>
        </mxCell>
        <mxCell id="_6r8pyDg1fTzUx4y1s2i-47" value="" style="shape=partialRectangle;html=1;whiteSpace=wrap;connectable=0;fillColor=none;top=1;left=1;bottom=1;right=1;overflow=hidden;" vertex="1" parent="_6r8pyDg1fTzUx4y1s2i-44">
          <mxGeometry x="306" width="244" height="149" as="geometry">
            <mxRectangle width="244" height="149" as="alternateBounds" />
          </mxGeometry>
        </mxCell>
        <mxCell id="_6r8pyDg1fTzUx4y1s2i-122" style="shape=partialRectangle;html=1;whiteSpace=wrap;connectable=0;fillColor=none;top=1;left=1;bottom=1;right=1;overflow=hidden;" vertex="1" parent="_6r8pyDg1fTzUx4y1s2i-44">
          <mxGeometry x="550" width="244" height="149" as="geometry">
            <mxRectangle width="244" height="149" as="alternateBounds" />
          </mxGeometry>
        </mxCell>
        <mxCell id="_6r8pyDg1fTzUx4y1s2i-140" style="shape=partialRectangle;html=1;whiteSpace=wrap;connectable=0;fillColor=none;top=1;left=1;bottom=1;right=1;overflow=hidden;" vertex="1" parent="_6r8pyDg1fTzUx4y1s2i-44">
          <mxGeometry x="794" width="244" height="149" as="geometry">
            <mxRectangle width="244" height="149" as="alternateBounds" />
          </mxGeometry>
        </mxCell>
        <mxCell id="_6r8pyDg1fTzUx4y1s2i-146" style="shape=partialRectangle;html=1;whiteSpace=wrap;connectable=0;fillColor=none;top=1;left=1;bottom=1;right=1;overflow=hidden;" vertex="1" parent="_6r8pyDg1fTzUx4y1s2i-44">
          <mxGeometry x="1038" width="244" height="149" as="geometry">
            <mxRectangle width="244" height="149" as="alternateBounds" />
          </mxGeometry>
        </mxCell>
        <mxCell id="_6r8pyDg1fTzUx4y1s2i-129" style="shape=partialRectangle;html=1;whiteSpace=wrap;collapsible=0;dropTarget=0;pointerEvents=0;fillColor=none;top=1;left=1;bottom=1;right=1;points=[[0,0.5],[1,0.5]];portConstraint=eastwest;" vertex="1" parent="_6r8pyDg1fTzUx4y1s2i-39">
          <mxGeometry y="208" width="1282" height="139" as="geometry" />
        </mxCell>
        <mxCell id="_6r8pyDg1fTzUx4y1s2i-130" value="需求调研" style="shape=partialRectangle;html=1;whiteSpace=wrap;connectable=0;fillColor=none;top=1;left=1;bottom=1;right=1;overflow=hidden;horizontal=0;" vertex="1" parent="_6r8pyDg1fTzUx4y1s2i-129">
          <mxGeometry width="62" height="139" as="geometry">
            <mxRectangle width="62" height="139" as="alternateBounds" />
          </mxGeometry>
        </mxCell>
        <mxCell id="_6r8pyDg1fTzUx4y1s2i-131" style="shape=partialRectangle;html=1;whiteSpace=wrap;connectable=0;fillColor=none;top=1;left=1;bottom=1;right=1;overflow=hidden;" vertex="1" parent="_6r8pyDg1fTzUx4y1s2i-129">
          <mxGeometry x="62" width="244" height="139" as="geometry">
            <mxRectangle width="244" height="139" as="alternateBounds" />
          </mxGeometry>
        </mxCell>
        <mxCell id="_6r8pyDg1fTzUx4y1s2i-132" style="shape=partialRectangle;html=1;whiteSpace=wrap;connectable=0;fillColor=none;top=1;left=1;bottom=1;right=1;overflow=hidden;" vertex="1" parent="_6r8pyDg1fTzUx4y1s2i-129">
          <mxGeometry x="306" width="244" height="139" as="geometry">
            <mxRectangle width="244" height="139" as="alternateBounds" />
          </mxGeometry>
        </mxCell>
        <mxCell id="_6r8pyDg1fTzUx4y1s2i-133" style="shape=partialRectangle;html=1;whiteSpace=wrap;connectable=0;fillColor=none;top=1;left=1;bottom=1;right=1;overflow=hidden;" vertex="1" parent="_6r8pyDg1fTzUx4y1s2i-129">
          <mxGeometry x="550" width="244" height="139" as="geometry">
            <mxRectangle width="244" height="139" as="alternateBounds" />
          </mxGeometry>
        </mxCell>
        <mxCell id="_6r8pyDg1fTzUx4y1s2i-141" style="shape=partialRectangle;html=1;whiteSpace=wrap;connectable=0;fillColor=none;top=1;left=1;bottom=1;right=1;overflow=hidden;" vertex="1" parent="_6r8pyDg1fTzUx4y1s2i-129">
          <mxGeometry x="794" width="244" height="139" as="geometry">
            <mxRectangle width="244" height="139" as="alternateBounds" />
          </mxGeometry>
        </mxCell>
        <mxCell id="_6r8pyDg1fTzUx4y1s2i-147" style="shape=partialRectangle;html=1;whiteSpace=wrap;connectable=0;fillColor=none;top=1;left=1;bottom=1;right=1;overflow=hidden;" vertex="1" parent="_6r8pyDg1fTzUx4y1s2i-129">
          <mxGeometry x="1038" width="244" height="139" as="geometry">
            <mxRectangle width="244" height="139" as="alternateBounds" />
          </mxGeometry>
        </mxCell>
        <mxCell id="_6r8pyDg1fTzUx4y1s2i-52" value="" style="shape=partialRectangle;html=1;whiteSpace=wrap;collapsible=0;dropTarget=0;pointerEvents=0;fillColor=none;top=1;left=1;bottom=1;right=1;points=[[0,0.5],[1,0.5]];portConstraint=eastwest;" vertex="1" parent="_6r8pyDg1fTzUx4y1s2i-39">
          <mxGeometry y="347" width="1282" height="139" as="geometry" />
        </mxCell>
        <mxCell id="_6r8pyDg1fTzUx4y1s2i-53" value="详细设计" style="shape=partialRectangle;html=1;whiteSpace=wrap;connectable=0;fillColor=none;top=1;left=1;bottom=1;right=1;overflow=hidden;horizontal=0;" vertex="1" parent="_6r8pyDg1fTzUx4y1s2i-52">
          <mxGeometry width="62" height="139" as="geometry">
            <mxRectangle width="62" height="139" as="alternateBounds" />
          </mxGeometry>
        </mxCell>
        <mxCell id="_6r8pyDg1fTzUx4y1s2i-54" value="" style="shape=partialRectangle;html=1;whiteSpace=wrap;connectable=0;fillColor=none;top=1;left=1;bottom=1;right=1;overflow=hidden;" vertex="1" parent="_6r8pyDg1fTzUx4y1s2i-52">
          <mxGeometry x="62" width="244" height="139" as="geometry">
            <mxRectangle width="244" height="139" as="alternateBounds" />
          </mxGeometry>
        </mxCell>
        <mxCell id="_6r8pyDg1fTzUx4y1s2i-55" value="" style="shape=partialRectangle;html=1;whiteSpace=wrap;connectable=0;fillColor=none;top=1;left=1;bottom=1;right=1;overflow=hidden;" vertex="1" parent="_6r8pyDg1fTzUx4y1s2i-52">
          <mxGeometry x="306" width="244" height="139" as="geometry">
            <mxRectangle width="244" height="139" as="alternateBounds" />
          </mxGeometry>
        </mxCell>
        <mxCell id="_6r8pyDg1fTzUx4y1s2i-123" style="shape=partialRectangle;html=1;whiteSpace=wrap;connectable=0;fillColor=none;top=1;left=1;bottom=1;right=1;overflow=hidden;" vertex="1" parent="_6r8pyDg1fTzUx4y1s2i-52">
          <mxGeometry x="550" width="244" height="139" as="geometry">
            <mxRectangle width="244" height="139" as="alternateBounds" />
          </mxGeometry>
        </mxCell>
        <mxCell id="_6r8pyDg1fTzUx4y1s2i-142" style="shape=partialRectangle;html=1;whiteSpace=wrap;connectable=0;fillColor=none;top=1;left=1;bottom=1;right=1;overflow=hidden;" vertex="1" parent="_6r8pyDg1fTzUx4y1s2i-52">
          <mxGeometry x="794" width="244" height="139" as="geometry">
            <mxRectangle width="244" height="139" as="alternateBounds" />
          </mxGeometry>
        </mxCell>
        <mxCell id="_6r8pyDg1fTzUx4y1s2i-148" style="shape=partialRectangle;html=1;whiteSpace=wrap;connectable=0;fillColor=none;top=1;left=1;bottom=1;right=1;overflow=hidden;" vertex="1" parent="_6r8pyDg1fTzUx4y1s2i-52">
          <mxGeometry x="1038" width="244" height="139" as="geometry">
            <mxRectangle width="244" height="139" as="alternateBounds" />
          </mxGeometry>
        </mxCell>
        <mxCell id="_6r8pyDg1fTzUx4y1s2i-134" style="shape=partialRectangle;html=1;whiteSpace=wrap;collapsible=0;dropTarget=0;pointerEvents=0;fillColor=none;top=1;left=1;bottom=1;right=1;points=[[0,0.5],[1,0.5]];portConstraint=eastwest;" vertex="1" parent="_6r8pyDg1fTzUx4y1s2i-39">
          <mxGeometry y="486" width="1282" height="164" as="geometry" />
        </mxCell>
        <mxCell id="_6r8pyDg1fTzUx4y1s2i-135" value="开发" style="shape=partialRectangle;html=1;whiteSpace=wrap;connectable=0;fillColor=none;top=1;left=1;bottom=1;right=1;overflow=hidden;horizontal=0;" vertex="1" parent="_6r8pyDg1fTzUx4y1s2i-134">
          <mxGeometry width="62" height="164" as="geometry">
            <mxRectangle width="62" height="164" as="alternateBounds" />
          </mxGeometry>
        </mxCell>
        <mxCell id="_6r8pyDg1fTzUx4y1s2i-136" style="shape=partialRectangle;html=1;whiteSpace=wrap;connectable=0;fillColor=none;top=1;left=1;bottom=1;right=1;overflow=hidden;" vertex="1" parent="_6r8pyDg1fTzUx4y1s2i-134">
          <mxGeometry x="62" width="244" height="164" as="geometry">
            <mxRectangle width="244" height="164" as="alternateBounds" />
          </mxGeometry>
        </mxCell>
        <mxCell id="_6r8pyDg1fTzUx4y1s2i-137" style="shape=partialRectangle;html=1;whiteSpace=wrap;connectable=0;fillColor=none;top=1;left=1;bottom=1;right=1;overflow=hidden;" vertex="1" parent="_6r8pyDg1fTzUx4y1s2i-134">
          <mxGeometry x="306" width="244" height="164" as="geometry">
            <mxRectangle width="244" height="164" as="alternateBounds" />
          </mxGeometry>
        </mxCell>
        <mxCell id="_6r8pyDg1fTzUx4y1s2i-138" style="shape=partialRectangle;html=1;whiteSpace=wrap;connectable=0;fillColor=none;top=1;left=1;bottom=1;right=1;overflow=hidden;" vertex="1" parent="_6r8pyDg1fTzUx4y1s2i-134">
          <mxGeometry x="550" width="244" height="164" as="geometry">
            <mxRectangle width="244" height="164" as="alternateBounds" />
          </mxGeometry>
        </mxCell>
        <mxCell id="_6r8pyDg1fTzUx4y1s2i-143" style="shape=partialRectangle;html=1;whiteSpace=wrap;connectable=0;fillColor=none;top=1;left=1;bottom=1;right=1;overflow=hidden;" vertex="1" parent="_6r8pyDg1fTzUx4y1s2i-134">
          <mxGeometry x="794" width="244" height="164" as="geometry">
            <mxRectangle width="244" height="164" as="alternateBounds" />
          </mxGeometry>
        </mxCell>
        <mxCell id="_6r8pyDg1fTzUx4y1s2i-149" style="shape=partialRectangle;html=1;whiteSpace=wrap;connectable=0;fillColor=none;top=1;left=1;bottom=1;right=1;overflow=hidden;" vertex="1" parent="_6r8pyDg1fTzUx4y1s2i-134">
          <mxGeometry x="1038" width="244" height="164" as="geometry">
            <mxRectangle width="244" height="164" as="alternateBounds" />
          </mxGeometry>
        </mxCell>
        <mxCell id="_6r8pyDg1fTzUx4y1s2i-48" value="" style="shape=partialRectangle;html=1;whiteSpace=wrap;collapsible=0;dropTarget=0;pointerEvents=0;fillColor=none;top=1;left=1;bottom=1;right=1;points=[[0,0.5],[1,0.5]];portConstraint=eastwest;" vertex="1" parent="_6r8pyDg1fTzUx4y1s2i-39">
          <mxGeometry y="650" width="1282" height="168" as="geometry" />
        </mxCell>
        <mxCell id="_6r8pyDg1fTzUx4y1s2i-49" value="测试" style="shape=partialRectangle;html=1;whiteSpace=wrap;connectable=0;fillColor=none;top=1;left=1;bottom=1;right=1;overflow=hidden;horizontal=0;" vertex="1" parent="_6r8pyDg1fTzUx4y1s2i-48">
          <mxGeometry width="62" height="168" as="geometry">
            <mxRectangle width="62" height="168" as="alternateBounds" />
          </mxGeometry>
        </mxCell>
        <mxCell id="_6r8pyDg1fTzUx4y1s2i-50" value="" style="shape=partialRectangle;html=1;whiteSpace=wrap;connectable=0;fillColor=none;top=1;left=1;bottom=1;right=1;overflow=hidden;" vertex="1" parent="_6r8pyDg1fTzUx4y1s2i-48">
          <mxGeometry x="62" width="244" height="168" as="geometry">
            <mxRectangle width="244" height="168" as="alternateBounds" />
          </mxGeometry>
        </mxCell>
        <mxCell id="_6r8pyDg1fTzUx4y1s2i-51" value="" style="shape=partialRectangle;html=1;whiteSpace=wrap;connectable=0;fillColor=none;top=1;left=1;bottom=1;right=1;overflow=hidden;" vertex="1" parent="_6r8pyDg1fTzUx4y1s2i-48">
          <mxGeometry x="306" width="244" height="168" as="geometry">
            <mxRectangle width="244" height="168" as="alternateBounds" />
          </mxGeometry>
        </mxCell>
        <mxCell id="_6r8pyDg1fTzUx4y1s2i-124" style="shape=partialRectangle;html=1;whiteSpace=wrap;connectable=0;fillColor=none;top=1;left=1;bottom=1;right=1;overflow=hidden;" vertex="1" parent="_6r8pyDg1fTzUx4y1s2i-48">
          <mxGeometry x="550" width="244" height="168" as="geometry">
            <mxRectangle width="244" height="168" as="alternateBounds" />
          </mxGeometry>
        </mxCell>
        <mxCell id="_6r8pyDg1fTzUx4y1s2i-144" style="shape=partialRectangle;html=1;whiteSpace=wrap;connectable=0;fillColor=none;top=1;left=1;bottom=1;right=1;overflow=hidden;" vertex="1" parent="_6r8pyDg1fTzUx4y1s2i-48">
          <mxGeometry x="794" width="244" height="168" as="geometry">
            <mxRectangle width="244" height="168" as="alternateBounds" />
          </mxGeometry>
        </mxCell>
        <mxCell id="_6r8pyDg1fTzUx4y1s2i-150" style="shape=partialRectangle;html=1;whiteSpace=wrap;connectable=0;fillColor=none;top=1;left=1;bottom=1;right=1;overflow=hidden;" vertex="1" parent="_6r8pyDg1fTzUx4y1s2i-48">
          <mxGeometry x="1038" width="244" height="168" as="geometry">
            <mxRectangle width="244" height="168" as="alternateBounds" />
          </mxGeometry>
        </mxCell>
      </root>
    </mxGraphModel>
  </diagram>
</mxfile>
